<svg width="75" height="75" viewBox="0 0 75 75" fill="none" xmlns="http://www.w3.org/2000/svg">
<path d="M74.6896 37.3448C74.6896 57.9697 57.9697 74.6896 37.3448 74.6896C16.7198 74.6896 0 57.9697 0 37.3448C0 16.7198 16.7198 0 37.3448 0C57.9697 0 74.6896 16.7198 74.6896 37.3448Z" fill="#3E0070"/>
<path d="M14.7766 43.7654C11.2764 40.2652 11.2764 34.5904 14.7766 31.0902L31.0901 14.7767C34.5903 11.2765 40.2652 11.2765 43.7654 14.7767L60.0789 31.0902C63.579 34.5904 63.579 40.2652 60.0789 43.7654L43.7654 60.0789C40.2652 63.5791 34.5903 63.5791 31.0901 60.0789L14.7766 43.7654Z" fill="white"/>
</svg>
