<svg width="2160" height="451" viewBox="0 0 2160 451" fill="none" xmlns="http://www.w3.org/2000/svg">
<path d="M451 225.5C451 350.04 350.04 451 225.5 451C100.96 451 0 350.04 0 225.5C0 100.96 100.96 0 225.5 0C350.04 0 451 100.96 451 225.5Z" fill="#3E0070"/>
<path d="M89.2264 264.27C68.0912 243.135 68.0912 208.868 89.2264 187.733L187.733 89.2263C208.868 68.0911 243.135 68.0911 264.27 89.2263L362.776 187.733C383.911 208.868 383.911 243.135 362.776 264.27L264.27 362.776C243.135 383.911 208.868 383.911 187.733 362.776L89.2264 264.27Z" fill="white"/>
<path d="M2062.93 158C2063.99 146.281 2061.15 137.108 2054.4 130.479C2047.66 123.732 2036.29 120.358 2020.31 120.358C2010.13 120.358 2001.61 121.542 1994.74 123.909C1988 126.277 1982.73 129.532 1978.94 133.675C1975.27 137.818 1972.96 142.612 1972.02 148.057C1970.95 152.318 1971.01 156.224 1972.19 159.776C1973.5 163.208 1975.92 166.345 1979.47 169.186C1983.14 172.027 1987.94 174.572 1993.86 176.821C1999.89 179.07 2007.05 181.082 2015.34 182.858L2043.75 189.25C2063.16 193.511 2079.44 199.134 2092.58 206.118C2105.84 212.983 2116.25 221.151 2123.83 230.621C2131.4 240.09 2136.38 250.685 2138.74 262.403C2141.23 274.122 2141.29 286.906 2138.92 300.756C2134.9 324.667 2125.6 344.908 2111.04 361.48C2096.48 378.052 2077.49 390.659 2054.05 399.3C2030.61 407.941 2003.5 412.261 1972.73 412.261C1941.24 412.261 1914.49 407.586 1892.47 398.234C1870.57 388.765 1854.71 374.323 1844.89 354.911C1835.18 335.379 1832.81 310.462 1837.78 280.159H1931.53C1930.11 291.286 1931.3 300.637 1935.08 308.213C1938.87 315.789 1944.97 321.53 1953.37 325.436C1961.78 329.342 1972.25 331.296 1984.8 331.296C1995.45 331.296 2004.57 329.993 2012.14 327.389C2019.72 324.785 2025.7 321.175 2030.08 316.558C2034.46 311.942 2037.12 306.674 2038.07 300.756C2039.01 295.311 2038.07 290.457 2035.23 286.196C2032.39 281.935 2027.24 278.088 2019.78 274.655C2012.32 271.222 2002.08 268.085 1989.06 265.244L1954.26 257.432C1923.37 250.33 1900.05 238.611 1884.3 222.276C1868.56 205.94 1863 183.568 1867.61 155.159C1871.4 131.958 1880.93 111.717 1896.2 94.4347C1911.59 77.0341 1931.12 63.5398 1954.79 53.9518C1978.59 44.2453 2004.92 39.3921 2033.81 39.3921C2063.16 39.3921 2087.72 44.3045 2107.49 54.1293C2127.38 63.9541 2141.64 77.7444 2150.28 95.5001C2159.04 113.256 2161.41 134.089 2157.39 158H2062.93Z" fill="#3E0070"/>
<path d="M1530.97 407.54L1591.48 43.0955H1847.73L1834.2 122.818H1676.89L1666.93 185.457H1808.58L1795.05 265.179H1653.4L1629.91 407.54H1530.97Z" fill="#3E0070"/>
<path d="M1202.12 407.54L1262.62 43.0955H1419.93C1446.98 43.0955 1469.76 48.4341 1488.27 59.1112C1506.77 69.7882 1520.06 84.7955 1528.13 104.133C1536.19 123.47 1538.09 146.07 1533.82 171.932C1529.55 198.269 1520.06 220.988 1505.35 240.088C1490.76 259.069 1472.13 273.721 1449.47 284.042C1426.93 294.244 1401.66 299.346 1373.67 299.346H1279.71L1292.52 222.471H1366.55C1378.41 222.471 1388.85 220.454 1397.87 216.42C1406.88 212.268 1414.18 206.455 1419.75 198.981C1425.33 191.388 1428.95 182.372 1430.61 171.932C1432.27 161.493 1431.5 152.595 1428.3 145.24C1425.21 137.766 1419.87 132.071 1412.28 128.156C1404.81 124.123 1395.26 122.106 1383.63 122.106H1348.75L1301.06 407.54H1202.12Z" fill="#3E0070"/>
<path d="M873.266 407.54L933.769 43.0955H1091.08C1118.13 43.0955 1140.9 48.4341 1159.41 59.1112C1177.92 69.7882 1191.21 84.7955 1199.27 104.133C1207.34 123.47 1209.24 146.07 1204.97 171.932C1200.7 198.269 1191.21 220.988 1176.49 240.088C1161.9 259.069 1143.28 273.721 1120.62 284.042C1098.08 294.244 1072.81 299.346 1044.81 299.346H950.852L963.665 222.471H1037.69C1049.56 222.471 1060 220.454 1069.01 216.42C1078.03 212.268 1085.32 206.455 1090.9 198.981C1096.48 191.388 1100.09 182.372 1101.76 171.932C1103.42 161.493 1102.64 152.595 1099.44 145.24C1096.36 137.766 1091.02 132.071 1083.43 128.156C1075.95 124.123 1066.4 122.106 1054.78 122.106H1019.9L972.207 407.54H873.266Z" fill="#3E0070"/>
<path d="M566.255 122.818L579.779 43.0955H896.533L883.008 122.818H773.39L726.411 407.54H628.894L675.873 122.818H566.255Z" fill="#3E0070"/>
</svg>
