<svg width="306" height="75" viewBox="0 0 306 75" fill="none" xmlns="http://www.w3.org/2000/svg">
<path d="M74.6896 37.3448C74.6896 57.9697 57.9697 74.6896 37.3448 74.6896C16.7198 74.6896 0 57.9697 0 37.3448C0 16.7198 16.7198 0 37.3448 0C57.9697 0 74.6896 16.7198 74.6896 37.3448Z" fill="#3E0070"/>
<path d="M14.7766 43.7654C11.2764 40.2652 11.2764 34.5904 14.7766 31.0902L31.0901 14.7767C34.5903 11.2765 40.2652 11.2765 43.7654 14.7767L60.0789 31.0902C63.579 34.5904 63.579 40.2652 60.0789 43.7654L43.7654 60.0789C40.2652 63.5791 34.5903 63.5791 31.0901 60.0789L14.7766 43.7654Z" fill="white"/>
<path d="M253.543 67.4922L263.563 7.13699H306L303.76 20.3397H277.709L276.058 30.7132H299.517L297.277 43.916H273.818L269.928 67.4922H253.543Z" fill="#3E0070"/>
<path d="M199.082 67.4922L209.102 7.13699H235.153C239.633 7.13699 243.405 8.0211 246.47 9.78932C249.535 11.5575 251.735 14.0429 253.071 17.2453C254.407 20.4478 254.722 24.1905 254.014 28.4735C253.307 32.8351 251.735 36.5975 249.299 39.7606C246.883 42.9041 243.798 45.3305 240.045 47.0398C236.312 48.7294 232.128 49.5742 227.491 49.5742H211.931L214.053 36.8431H226.312C228.277 36.8431 230.006 36.5091 231.499 35.8411C232.992 35.1534 234.2 34.1907 235.124 32.953C236.047 31.6956 236.646 30.2024 236.922 28.4735C237.197 26.7446 237.069 25.2711 236.538 24.053C236.028 22.8152 235.144 21.8721 233.886 21.2238C232.648 20.5558 231.067 20.2218 229.141 20.2218H223.365L215.467 67.4922H199.082Z" fill="#3E0070"/>
<path d="M144.621 67.4922L154.641 7.13699H180.692C185.172 7.13699 188.944 8.0211 192.009 9.78932C195.074 11.5575 197.274 14.0429 198.61 17.2453C199.946 20.4478 200.261 24.1905 199.553 28.4735C198.846 32.8351 197.274 36.5975 194.838 39.7606C192.421 42.9041 189.337 45.3305 185.584 47.0398C181.851 48.7294 177.667 49.5742 173.03 49.5742H157.47L159.592 36.8431H171.851C173.816 36.8431 175.545 36.5091 177.038 35.8411C178.531 35.1534 179.739 34.1907 180.663 32.953C181.586 31.6956 182.185 30.2024 182.46 28.4735C182.736 26.7446 182.608 25.2711 182.077 24.053C181.567 22.8152 180.682 21.8721 179.425 21.2238C178.187 20.5558 176.606 20.2218 174.68 20.2218H168.904L161.006 67.4922H144.621Z" fill="#3E0070"/>
<path d="M93.7769 20.3397L96.0166 7.13699H148.474L146.234 20.3397H128.08L120.3 67.4922H104.15L111.931 20.3397H93.7769Z" fill="#3E0070"/>
</svg>
